PathFileType	4	(X/Y/Z)	Patient4_TMGait_0pt8_01_right_35.trc.trc
DataRate	CameraRate	NumFrames	NumMarkers	Units	OrigDataRate	OrigDataStartFrame	OrigNumFrames
88.050314465409	88.050314465409	4	33	mm	88.050314465409	71	       141
Frame#	Time	Sacral			L.Shoulder			Chest			R.Shoulder			Neck			R.ASIS			L.ASIS			R.Thigh.Superior			R.Thigh.Lateral			R.Thigh.Inferior			R.Patella			L.Thigh.Superior			L.Thigh.Lateral			L.Thigh.Inferior			L.Patella			L.Shank.Superior			L.Shank.Lateral			L.Shank.Inferior			R.Shank.Superior			R.Shank.Lateral			R.Shank.Inferior			R.Heel			R.Midfoot.Superior			R.Midfoot.Lateral			R.Toe			L.Heel			L.Midfoot.Lateral			L.Midfoot.Superior			L.Toe			L.Elbow			L.Wrist			R.Elbow			R.Wrist			
		X1	Y1	Z1	X2	Y2	Z2	X3	Y3	Z3	X4	Y4	Z4	X5	Y5	Z5	X6	Y6	Z6	X7	Y7	Z7	X8	Y8	Z8	X9	Y9	Z9	X10	Y10	Z10	X11	Y11	Z11	X12	Y12	Z12	X13	Y13	Z13	X14	Y14	Z14	X15	Y15	Z15	X16	Y16	Z16	X17	Y17	Z17	X18	Y18	Z18	X19	Y19	Z19	X20	Y20	Z20	X21	Y21	Z21	X22	Y22	Z22	X23	Y23	Z23	X24	Y24	Z24	X25	Y25	Z25	X26	Y26	Z26	X27	Y27	Z27	X28	Y28	Z28	X29	Y29	Z29	X30	Y30	Z30	X31	Y31	Z31	X32	Y32	Z32	X33	Y33	Z33	

71	39.985000000000	882.190429207929	997.143867200408	525.118794835274	1019.120445387475	1423.599138977990	329.595533537104	1152.330582407548	1353.003662283867	466.550267396964	1103.939633190370	1422.875881934274	655.000520978311	1032.344411436064	1480.346250445897	488.065463108059	1116.183999899547	925.246553424939	614.440544033818	1073.217180389216	945.657243614916	341.219778281512	1096.805364776309	711.157753212170	590.188651102245	984.882428864107	625.265898737057	654.938133276823	1035.898248559868	555.545925631932	573.504170186991	1010.630372360386	471.490700584433	577.723013252122	1153.720450734041	769.386535085848	369.169880261705	1104.514282021016	635.802867538921	295.127148597361	1216.737248167008	584.486033598117	346.830087199141	1245.329401940249	519.901392225932	343.429024235600	1231.687541744382	445.749982975703	336.833336462876	1167.174532908702	312.136241547253	295.587813805630	1262.981206596716	218.746549843411	344.486655591150	966.427809227268	392.434242164186	584.852308223312	880.240114679041	301.500806268561	648.909855309111	902.861005801619	202.122236951616	581.451040462524	746.561593519017	47.694576226410	549.512444446109	919.643017122291	96.812670831373	585.715206510494	829.565716260643	37.993228908083	623.158231601692	1037.875687956918	39.514391711965	613.455041119056	1190.925318051383	40.603166298906	392.982445912770	1258.565054788522	44.843597060740	307.369770547558	1329.127870016775	122.582453776601	322.319966722721	1460.439482203925	93.921692784154	286.520781439062	846.993124144964	1115.929484108207	252.339659353975	769.859206559340	868.965048959682	274.698292819312	1286.837508125548	1134.410930982325	751.829895557637	1527.941289761326	1196.132073454505	693.605593561651	
72	39.996357142857	883.251073881308	996.041706435544	522.046786776794	1019.558652875374	1422.540016400578	327.457823035666	1152.669987838798	1352.208270907876	464.655530007449	1103.639988657719	1422.018495252294	652.949031149702	1032.355173144217	1479.224189153808	485.970903118647	1116.797732501785	923.827496874790	612.773240148665	1075.268439100429	944.502864335698	339.218652316208	1096.511930053216	709.590429596042	588.948396024952	983.712686509519	624.431586822722	653.238687964712	1034.833890412540	554.006534063578	572.388132622989	1008.557613286385	469.629076713325	576.490760960025	1156.331611265552	768.169413671954	368.411360838111	1106.302689383012	634.124657240103	295.955396064079	1218.289239591420	582.750847916654	347.839556556481	1245.692217278112	516.629221448441	345.347769912635	1230.854281421396	441.963180140271	338.926720872383	1163.404317222014	309.650539860139	298.219927165740	1256.435683182488	214.253572747854	348.391540351235	963.009562071467	391.207608323648	583.809019702335	875.164454977990	302.030050674135	648.225309921796	896.034578262922	201.984920968849	581.216864067395	737.630910746167	49.156524564715	549.891711876532	910.933826003188	96.897367285000	585.782415874128	820.630359348577	38.504392071148	623.337281204738	1028.870924423773	39.145519379376	613.602786968288	1178.650477207123	39.339594438481	396.481950114760	1246.800284638131	42.096149960493	311.162083199488	1320.212330155509	116.578671071917	327.553209026251	1450.737210354285	83.101252183763	292.037493055493	844.159963196998	1117.424570935863	251.392811263057	763.630624476866	871.581174568975	274.997219051959	1290.056853996934	1136.493718293095	749.076895060223	1528.014029481078	1206.862140444076	690.050721016901	
73	40.007714285714	884.443821951469	995.155694527607	518.816911441765	1020.143321156872	1421.635162170517	325.230045652773	1153.141688100388	1351.618023881444	462.711095953423	1103.421417094892	1421.332850323427	650.866586363960	1032.491563662923	1478.315292859372	483.757780941253	1117.536408934224	922.570633623648	610.911413920264	1077.414409781651	943.628857006337	337.093179559441	1096.441988336132	708.211219255390	587.608844795325	982.794269930017	623.752097567897	651.388208291230	1034.160869884950	552.590645479353	571.201112034071	1006.918675584493	467.795762809501	575.221050775576	1158.824067944046	766.974202610021	367.543491561374	1107.968209882842	632.756337069551	296.429135593525	1219.552016419506	581.100679107373	348.822217778470	1245.725632582551	513.559816827881	347.146170440899	1229.780951916057	438.498786976271	340.681637211699	1159.681872762412	307.471052486696	300.212771409250	1249.884319015736	210.169821568490	351.748450977889	959.923857228809	390.074383536969	582.738420204440	870.302085416084	302.817108800592	647.463695175390	889.416793582885	202.067238794599	581.035623803118	728.774267851134	51.046027279463	550.340575680032	902.415369261132	97.077851009236	585.965300015694	811.752495092257	39.201340433096	623.564019948606	1019.894123598347	38.797045213206	613.735228511932	1166.418143157932	38.385465250628	399.205827910479	1235.181147956621	39.836927355196	314.264967945330	1311.256673938683	111.146435295818	332.283715262421	1441.057475236754	73.118819655904	297.217158570272	842.375437997947	1118.469967604322	250.227827942918	758.907310741752	873.651488188860	274.843771503724	1292.552104150205	1138.141674691514	746.493384099520	1527.337585589373	1216.284548312772	686.790191193007	
74	40.019071428571	885.735051236629	994.551401831505	515.481938173160	1020.887068334602	1420.942456073626	322.933852357000	1153.752043368131	1351.276097837186	460.736465076011	1103.307489971382	1420.874474840997	648.770451884787	1032.767248163566	1477.674571540934	481.448836157611	1118.370064707265	921.536991512100	608.840928699836	1079.593266561236	943.090883225975	334.854691614956	1096.565748431050	707.079980430894	586.131303926958	982.161536917612	623.263433581345	649.413858237107	1033.893203221670	551.355590359671	569.931434564484	1005.769355450809	466.023122873335	573.958251342507	1161.094974456983	765.866476166793	366.550209638662	1109.463916090647	631.784241799484	296.413749870953	1220.465989881400	579.631607438432	349.620528794148	1245.418368245245	510.860653969372	348.617370958791	1228.497938287326	435.514509499469	341.947007110993	1156.144305526567	305.712560743616	301.398572195043	1243.515580601205	206.687059403703	354.380556571933	957.207185942951	389.075197118099	581.684016091312	865.698887750551	303.910547253968	646.653199943498	883.058314268684	202.418880093181	580.938275418876	720.022841527207	53.449276639209	550.870872987603	894.133268846243	97.362264527065	586.283119328167	802.948235100907	40.123461284258	623.843042938370	1010.945756145337	38.485667119483	613.838478405021	1154.666566975009	37.765867968818	401.118010138664	1224.070547138525	38.133695482179	316.587222678265	1302.469672100175	106.556712933919	336.253927835506	1431.635125279899	64.519805550562	301.725861233884	841.669033475996	1119.064947555046	248.811663220941	755.759634384217	875.137687953503	274.197935253766	1294.292078514754	1139.315629957891	744.106704310789	1525.981932146390	1224.351071678941	683.834483489057	
